<?xml version="1.0" encoding="UTF-8"?>
<svg id="Layer_2" xmlns="http://www.w3.org/2000/svg" viewBox="0 0 101.34 22.71">
  <defs>
    <style>
      .cls-1 {
        fill: #fff;
      }
    </style>
  </defs>
  <g id="Layer_2-2" data-name="Layer_2">
    <g>
      <path class="cls-1" d="M0,17.56v-7.87c0-3.47,1.58-5.15,4.96-5.15s5.05,1.48,5.05,4.83v2.47l-4.22.42v-2.74c0-1.48-.27-1.91-.76-1.91s-.76.43-.76,1.38v9.28c0,.93.25,1.36.76,1.36s.76-.45.76-1.41v-3.47l4.27.43v2.32c0,3.6-1.79,5.2-5.1,5.2s-4.96-1.68-4.96-5.15Z"/>
      <path class="cls-1" d="M11.01,17.7v-8.1c0-3.32,1.71-5.05,5.05-5.05s5.06,1.73,5.06,5.05v8.1c0,3.3-1.73,5.01-5.06,5.01s-5.05-1.71-5.05-5.01ZM16.85,18.23v-9.16c0-.95-.27-1.38-.8-1.38s-.78.43-.78,1.38v9.16c0,.91.27,1.34.78,1.34s.8-.43.8-1.34Z"/>
      <path class="cls-1" d="M22.23,4.91h3.97c.02.58-.13,1.25-.55,2.41l.28.12c.73-1.76,1.79-2.71,3.62-2.71s2.62.95,2.62,2.91v14.71h-4.22v-13.75c0-.53-.18-.8-.51-.8-.63,0-1,1.01-1,2.79v11.75h-4.22V4.91Z"/>
      <path class="cls-1" d="M34.42,18.64v-10.54h-1.51v-3.19h1.51V1.36l4.23-1.36v4.91h2.34v3.19h-2.34v10.23c0,.63.28.91.9.91.4,0,.9-.1,1.48-.28l-.35,3.05c-.68.38-1.54.58-2.49.58-2.46,0-3.77-1.28-3.77-3.95Z"/>
      <path class="cls-1" d="M41.39,18.86v-.83c0-3.25,1.88-4.4,3.79-5.4l1.93-1v-3c0-.68-.2-1.01-.61-1.01-.45,0-.7.38-.7,1.73v2.37l-4.13-.38v-1.98c0-3.24,1.51-4.81,4.83-4.81s4.83,1.39,4.83,4.23v9.91c0,.55.13.7.6.7h.33l-.35,3.17c-.35.1-.81.15-1.13.15-2.08,0-2.77-.9-2.57-2.84l-.28-.05c-.35,1.81-1.49,2.89-3.32,2.89-2.08,0-3.2-1.48-3.2-3.85ZM47.1,17.85v-3.07l-.53.35c-.53.33-.93.91-.93,1.88v1.1c0,.95.23,1.34.66,1.34.55,0,.8-.55.8-1.59Z"/>
      <path class="cls-1" d="M52.74,17.56v-7.87c0-3.47,1.58-5.15,4.96-5.15s5.05,1.48,5.05,4.83v2.47l-4.22.42v-2.74c0-1.48-.27-1.91-.76-1.91s-.76.43-.76,1.38v9.28c0,.93.25,1.36.76,1.36s.76-.45.76-1.41v-3.47l4.27.43v2.32c0,3.6-1.79,5.2-5.1,5.2s-4.96-1.68-4.96-5.15Z"/>
      <path class="cls-1" d="M64.75,18.64v-10.54h-1.51v-3.19h1.51V1.36l4.23-1.36v4.91h2.34v3.19h-2.34v10.23c0,.63.28.91.9.91.4,0,.9-.1,1.48-.28l-.35,3.05c-.68.38-1.54.58-2.49.58-2.46,0-3.77-1.28-3.77-3.95Z"/>
      <path class="cls-1" d="M85.32,22.35h-3.97c-.02-.58.13-1.25.55-2.41l-.28-.12c-.73,1.76-1.79,2.71-3.62,2.71s-2.62-.95-2.62-2.91V4.91h4.22v13.75c0,.53.18.8.51.8.63,0,1-1.01,1-2.79V4.91h4.22v17.43Z"/>
      <path class="cls-1" d="M86.26,18.18v-1.15l3.98-.51v1.69c0,1.06.25,1.54.8,1.54.4,0,.61-.25.61-.8,0-1.33-.45-2.29-1.83-3.75l-1.29-1.39c-1.38-1.46-2.21-2.94-2.21-4.71,0-3,1.56-4.53,4.62-4.53s4.75,1.46,4.73,4.53l-.02.71-4,.5v-1.39c0-1.05-.2-1.44-.71-1.44-.38,0-.6.25-.6.8,0,1.26.4,1.99,1.69,3.27l1.29,1.31c1.29,1.28,2.51,2.69,2.51,5.48s-1.64,4.37-4.83,4.37-4.75-1.43-4.75-4.52Z"/>
      <path class="cls-1" d="M101.34,4.91v4.15h-4.65v-4.15h4.65ZM101.34,18.2v4.15h-4.65v-4.15h4.65Z"/>
    </g>
  </g>
</svg>