<?xml version="1.0" encoding="UTF-8"?>
<svg id="Layer_2" xmlns="http://www.w3.org/2000/svg" viewBox="0 0 108.57 23.61">
  <defs>
    <style>
      .cls-1 {
        fill: #fff;
      }
    </style>
  </defs>
  <g id="Layer_2-2" data-name="Layer_2">
    <g>
      <path class="cls-1" d="M0,19.08v-1.15l3.98-.51v1.69c0,1.06.25,1.54.8,1.54.4,0,.61-.25.61-.8,0-1.33-.45-2.29-1.83-3.75l-1.29-1.39C.9,13.25.07,11.77.07,9.99.07,6.99,1.63,5.46,4.68,5.46s4.75,1.46,4.73,4.53l-.02.71-4,.5v-1.39c0-1.05-.2-1.44-.71-1.44-.38,0-.6.25-.6.8,0,1.26.4,1.99,1.69,3.27l1.29,1.31c1.29,1.28,2.51,2.69,2.51,5.48s-1.64,4.37-4.83,4.37-4.75-1.43-4.75-4.52Z"/>
      <path class="cls-1" d="M10.44,18.59v-8.1c0-3.32,1.71-5.05,5.05-5.05s5.06,1.73,5.06,5.05v8.1c0,3.3-1.73,5.01-5.06,5.01s-5.05-1.71-5.05-5.01ZM16.29,19.12v-9.16c0-.95-.27-1.38-.8-1.38s-.78.43-.78,1.38v9.16c0,.91.27,1.34.78,1.34s.8-.43.8-1.34Z"/>
      <path class="cls-1" d="M21.67,5.81h3.97c.05.5-.08,1.11-.55,2.42l.28.12c.88-1.86,1.98-2.72,3.54-2.72s2.22,1.15,1.88,2.72l.27.12c.83-1.88,1.91-2.84,3.6-2.84s2.52.95,2.52,2.97v14.64h-4.22v-13.75c0-.5-.18-.8-.5-.8-.58,0-.93.96-.93,2.69v11.85h-4.22v-13.75c0-.5-.18-.8-.5-.8-.58,0-.93.96-.93,2.69v11.85h-4.22V5.81Z"/>
      <path class="cls-1" d="M42.47,15.75v3.47c0,.9.3,1.31.9,1.31.56,0,.86-.4.88-1.61v-2.21l4.03.43v1.79c0,3.17-1.78,4.67-4.95,4.67-3.34,0-5.06-1.69-5.06-5.01v-8.1c0-3.34,1.73-5.05,5.11-5.05s4.95,1.68,4.95,4.91c0,1.18-.02,3.9-.03,5.4h-5.83ZM42.47,9.86v3.2h1.63v-3.35c0-.81-.27-1.2-.81-1.2s-.81.46-.81,1.34Z"/>
      <path class="cls-1" d="M51.93,5.81h4.27l.66,7.8c.08,1.06.15,2.21.17,3.79h.3c.03-1.58.1-2.72.18-3.79l.68-7.8h4.27l.68,7.8c.1,1.06.13,2.21.18,3.79h.3c.03-1.58.1-2.72.17-3.79l.65-7.8h4.12l-2.41,17.43h-4.96l-.45-5.74c-.17-2.06-.23-3.25-.33-5.38h-.27c-.08,2.12-.15,3.34-.32,5.38l-.45,5.74h-4.96l-2.47-17.43Z"/>
      <path class="cls-1" d="M68.9,18.59v-8.1c0-3.32,1.71-5.05,5.05-5.05s5.06,1.73,5.06,5.05v8.1c0,3.3-1.73,5.01-5.06,5.01s-5.05-1.71-5.05-5.01ZM74.74,19.12v-9.16c0-.95-.27-1.38-.8-1.38s-.78.43-.78,1.38v9.16c0,.91.27,1.34.78,1.34s.8-.43.8-1.34Z"/>
      <path class="cls-1" d="M80.12,5.81h4.12c.03.78-.12,1.54-.53,2.66l.27.13c1.05-2.32,1.71-2.96,3.4-3.15l.43,4.15-.93.12c-1.99.28-2.54,1.21-2.54,4.73v8.8h-4.22V5.81Z"/>
      <path class="cls-1" d="M88.52,0h4.22v5.38c0,2.42-.15,4.12-.56,6.47l.25.1,2.36-6.14h4.2l-2.52,5.79,2.61,11.64h-4.28l-1.28-8.22-.76,1.74v6.47h-4.22V0Z"/>
      <path class="cls-1" d="M99,19.08v-1.15l3.98-.51v1.69c0,1.06.25,1.54.8,1.54.4,0,.61-.25.61-.8,0-1.33-.45-2.29-1.83-3.75l-1.29-1.39c-1.38-1.46-2.21-2.94-2.21-4.71,0-3,1.56-4.53,4.62-4.53s4.75,1.46,4.73,4.53l-.02.71-4,.5v-1.39c0-1.05-.2-1.44-.71-1.44-.38,0-.6.25-.6.8,0,1.26.4,1.99,1.69,3.27l1.29,1.31c1.29,1.28,2.51,2.69,2.51,5.48s-1.64,4.37-4.83,4.37-4.75-1.43-4.75-4.52Z"/>
    </g>
  </g>
</svg>