<?xml version="1.0" encoding="UTF-8"?>
<svg id="Layer_2" xmlns="http://www.w3.org/2000/svg" viewBox="0 0 119.98 23.61">
  <defs>
    <style>
      .cls-1 {
        fill: #fff;
      }
    </style>
  </defs>
  <g id="Layer_2-2" data-name="Layer_2">
    <g>
      <path class="cls-1" d="M0,5.81h4.27l.66,7.8c.08,1.06.15,2.21.17,3.79h.3c.03-1.58.1-2.72.18-3.79l.68-7.8h4.27l.68,7.8c.1,1.06.13,2.21.18,3.79h.3c.03-1.58.1-2.72.17-3.79l.65-7.8h4.12l-2.41,17.43h-4.96l-.45-5.74c-.17-2.06-.23-3.25-.33-5.38h-.27c-.08,2.12-.15,3.34-.32,5.38l-.45,5.74H2.47L0,5.81Z"/>
      <path class="cls-1" d="M21.17,15.75v3.47c0,.9.3,1.31.9,1.31.56,0,.86-.4.88-1.61v-2.21l4.03.43v1.79c0,3.17-1.78,4.67-4.95,4.67-3.34,0-5.06-1.69-5.06-5.01v-8.1c0-3.34,1.73-5.05,5.11-5.05s4.95,1.68,4.95,4.91c0,1.18-.02,3.9-.03,5.4h-5.83ZM21.17,9.86v3.2h1.63v-3.35c0-.81-.27-1.2-.81-1.2s-.81.46-.81,1.34Z"/>
      <path class="cls-1" d="M31.71,20.72l-.32.12c.43,1.28.61,2.04.6,2.41h-3.85V0h4.22v3.72c0,1.71-.17,2.72-.81,4.5l.3.13c.71-1.79,1.59-2.72,3.34-2.72,1.89,0,2.99,1.39,2.99,4.27v9.26c0,2.87-1.1,4.27-3.09,4.27-1.69,0-2.59-.93-3.37-2.71ZM33.95,19.03v-9c0-.9-.25-1.36-.7-1.36-.61,0-.9.8-.9,2.34v7.06c0,1.54.32,2.32.9,2.32.46,0,.7-.45.7-1.36Z"/>
      <path class="cls-1" d="M39,19.08v-1.15l3.98-.51v1.69c0,1.06.25,1.54.8,1.54.4,0,.61-.25.61-.8,0-1.33-.45-2.29-1.83-3.75l-1.29-1.39c-1.38-1.46-2.21-2.94-2.21-4.71,0-3,1.56-4.53,4.62-4.53s4.75,1.46,4.73,4.53l-.02.71-4,.5v-1.39c0-1.05-.2-1.44-.71-1.44-.38,0-.6.25-.6.8,0,1.26.4,1.99,1.69,3.27l1.29,1.31c1.29,1.28,2.51,2.69,2.51,5.48s-1.64,4.37-4.83,4.37-4.75-1.43-4.75-4.52Z"/>
      <path class="cls-1" d="M49.52.86h4.22v3.59h-4.22V.86ZM49.52,5.81h4.22v17.43h-4.22V5.81Z"/>
      <path class="cls-1" d="M56.03,19.54v-10.54h-1.51v-3.19h1.51v-3.55l4.23-1.36v4.91h2.34v3.19h-2.34v10.23c0,.63.28.91.9.91.4,0,.9-.1,1.48-.28l-.35,3.05c-.68.38-1.54.58-2.49.58-2.46,0-3.77-1.28-3.77-3.95Z"/>
      <path class="cls-1" d="M67.4,15.75v3.47c0,.9.3,1.31.9,1.31.56,0,.86-.4.88-1.61v-2.21l4.03.43v1.79c0,3.17-1.78,4.67-4.95,4.67-3.34,0-5.06-1.69-5.06-5.01v-8.1c0-3.34,1.73-5.05,5.11-5.05s4.95,1.68,4.95,4.91c0,1.18-.02,3.9-.03,5.4h-5.83ZM67.4,9.86v3.2h1.63v-3.35c0-.81-.27-1.2-.81-1.2s-.81.46-.81,1.34Z"/>
      <path class="cls-1" d="M77.23,19.08v-1.15l3.98-.51v1.69c0,1.06.25,1.54.8,1.54.4,0,.61-.25.61-.8,0-1.33-.45-2.29-1.83-3.75l-1.29-1.39c-1.38-1.46-2.21-2.94-2.21-4.71,0-3,1.56-4.53,4.62-4.53s4.75,1.46,4.73,4.53l-.02.71-4,.5v-1.39c0-1.05-.2-1.44-.71-1.44-.38,0-.6.25-.6.8,0,1.26.4,1.99,1.69,3.27l1.29,1.31c1.29,1.28,2.51,2.69,2.51,5.48s-1.64,4.37-4.83,4.37-4.75-1.43-4.75-4.52Z"/>
      <path class="cls-1" d="M87.67,18.59v-8.1c0-3.32,1.71-5.05,5.05-5.05s5.06,1.73,5.06,5.05v8.1c0,3.3-1.73,5.01-5.06,5.01s-5.05-1.71-5.05-5.01ZM93.52,19.12v-9.16c0-.95-.27-1.38-.8-1.38s-.78.43-.78,1.38v9.16c0,.91.27,1.34.78,1.34s.8-.43.8-1.34Z"/>
      <path class="cls-1" d="M98.81,18.59v-8.1c0-3.32,1.71-5.05,5.05-5.05s5.06,1.73,5.06,5.05v8.1c0,3.3-1.73,5.01-5.06,5.01s-5.05-1.71-5.05-5.01ZM104.66,19.12v-9.16c0-.95-.27-1.38-.8-1.38s-.78.43-.78,1.38v9.16c0,.91.27,1.34.78,1.34s.8-.43.8-1.34Z"/>
      <path class="cls-1" d="M110.04,5.81h3.97c.02.58-.13,1.25-.55,2.41l.28.12c.73-1.76,1.79-2.71,3.62-2.71s2.62.95,2.62,2.91v14.71h-4.22v-13.75c0-.53-.18-.8-.51-.8-.63,0-1,1.01-1,2.79v11.75h-4.22V5.81Z"/>
    </g>
  </g>
</svg>